<?xml version="1.0" standalone="no"?>
<!DOCTYPE svg PUBLIC "-//W3C//DTD SVG 20010904//EN"
 "http://www.w3.org/TR/2001/REC-SVG-20010904/DTD/svg10.dtd">
<svg version="1.0" xmlns="http://www.w3.org/2000/svg"
 width="384.000000pt" height="384.000000pt" viewBox="0 0 384.000000 384.000000"
 preserveAspectRatio="xMidYMid meet">
<metadata>
Created by potrace 1.10, written by Peter Selinger 2001-2011
</metadata>
<g transform="translate(0.000000,384.000000) scale(0.100000,-0.100000)"
fill="#ffffff" stroke="none">
<path d="M1302 3027 c-22 -23 -22 -27 -24 -493 l-3 -469 -456 -3 c-390 -2
-459 -4 -469 -17 -7 -8 -20 -15 -29 -15 -10 0 -27 -10 -39 -23 l-22 -23 0
-570 0 -570 38 -37 38 -37 754 2 755 3 3 22 c2 12 10 27 18 33 8 7 14 20 14
29 0 10 14 30 30 46 17 16 30 36 30 46 0 9 14 29 30 42 17 14 30 30 30 36 0 7
-76 12 -222 13 l-223 3 0 355 0 355 235 5 235 5 3 67 c2 43 8 71 17 78 8 7 15
27 15 45 0 18 7 38 15 45 9 7 15 23 13 34 -3 21 -9 21 -268 26 l-265 5 0 355
0 355 355 0 355 0 3 -252 c1 -168 6 -253 13 -253 6 0 22 14 36 30 13 17 33 30
42 30 10 0 30 13 46 30 20 21 38 30 60 30 20 0 39 8 53 23 20 21 22 35 24 192
l3 170 370 0 370 0 3 -230 2 -231 90 -89 c50 -49 90 -97 90 -105 0 -9 14 -29
30 -45 23 -22 30 -38 30 -67 0 -27 4 -38 15 -38 13 0 15 63 15 503 l0 503 -38
37 -38 37 -1080 0 -1081 0 -21 -23z m-27 -1627 l0 -355 -370 0 -370 0 -3 345
c-1 190 0 351 3 358 3 10 82 12 372 10 l368 -3 0 -355z"/>
<path d="M2630 2375 c-7 -8 -27 -15 -45 -15 -18 0 -38 -7 -45 -15 -7 -8 -27
-15 -44 -15 -24 0 -42 -10 -76 -45 -24 -25 -51 -45 -60 -45 -20 0 -120 -101
-120 -122 0 -8 -7 -21 -15 -28 -8 -7 -15 -20 -15 -29 0 -10 -13 -30 -30 -46
-25 -24 -30 -37 -30 -76 0 -29 -6 -51 -15 -59 -12 -10 -15 -43 -15 -180 0
-137 3 -170 15 -180 9 -8 15 -30 15 -60 0 -29 6 -52 14 -60 8 -6 16 -21 18
-33 2 -13 13 -23 28 -27 14 -3 26 -14 28 -25 2 -11 17 -33 32 -50 15 -16 30
-39 32 -50 2 -13 12 -21 31 -23 34 -4 37 -32 3 -32 -13 0 -29 -7 -36 -15 -7
-8 -20 -15 -29 -15 -9 0 -37 -20 -61 -45 -24 -25 -51 -45 -60 -45 -20 0 -180
-161 -180 -181 0 -9 -7 -22 -15 -29 -8 -7 -15 -20 -15 -29 0 -9 -20 -37 -45
-61 -41 -40 -45 -49 -45 -91 0 -29 -6 -51 -15 -59 -8 -7 -15 -20 -15 -30 0
-10 -7 -23 -15 -30 -13 -11 -15 -37 -13 -154 l3 -141 100 0 100 0 3 52 c2 29
9 56 17 63 8 7 15 27 15 45 0 18 7 38 15 45 8 7 15 20 15 30 0 10 7 23 15 30
8 7 15 27 15 44 0 23 9 41 30 61 17 16 30 36 30 46 0 9 7 22 15 29 8 7 15 20
15 29 0 21 100 121 121 121 8 0 28 13 44 30 16 16 36 30 45 30 9 0 29 14 45
30 16 16 36 30 46 30 9 0 22 7 29 15 9 10 32 15 75 15 43 0 66 5 75 15 18 22
252 22 270 0 9 -10 32 -15 75 -15 43 0 66 -5 75 -15 7 -8 20 -15 29 -15 10 0
30 -13 46 -30 16 -16 36 -30 45 -30 9 0 29 -13 45 -30 16 -16 36 -30 45 -30
20 0 57 -38 62 -65 2 -11 14 -22 28 -25 15 -4 26 -14 28 -27 2 -12 10 -27 18
-33 8 -7 14 -20 14 -29 0 -10 14 -30 30 -46 21 -20 30 -38 30 -61 0 -17 7 -37
15 -44 8 -7 15 -20 15 -30 0 -10 7 -23 15 -30 8 -7 15 -27 15 -45 0 -18 7 -38
15 -45 8 -7 15 -34 17 -63 l3 -52 100 0 100 0 3 141 c2 117 0 143 -13 154 -8
7 -15 20 -15 30 0 10 -7 23 -15 30 -9 8 -15 30 -15 59 0 42 -4 51 -45 91 -25
24 -45 52 -45 61 0 9 -7 22 -15 29 -8 7 -15 20 -15 29 0 21 -160 181 -181 181
-8 0 -35 20 -59 45 -24 25 -52 45 -61 45 -9 0 -22 7 -29 15 -7 8 -23 15 -36
15 -13 0 -24 4 -24 9 0 5 27 35 59 66 33 31 61 66 63 78 2 13 13 23 28 27 15
4 26 14 28 27 2 12 10 27 18 33 8 8 14 31 14 60 0 30 6 52 15 60 12 10 15 43
15 180 0 137 -3 170 -15 180 -9 8 -15 30 -15 59 0 39 -5 52 -30 76 -16 16 -30
36 -30 46 0 9 -7 22 -15 29 -8 7 -15 20 -15 29 0 21 -100 121 -121 121 -8 0
-35 20 -59 45 -34 35 -52 45 -76 45 -17 0 -37 7 -44 15 -7 8 -27 15 -45 15
-18 0 -38 7 -45 15 -10 12 -42 15 -165 15 -123 0 -155 -3 -165 -15z m210 -240
c7 -8 27 -15 45 -15 18 0 38 -7 45 -15 7 -8 27 -15 44 -15 23 0 41 -9 61 -30
16 -16 35 -30 44 -30 21 0 61 -40 61 -61 0 -9 7 -22 15 -29 8 -7 15 -20 15
-30 0 -10 7 -23 15 -30 8 -7 15 -27 15 -45 0 -18 7 -38 15 -45 10 -9 15 -32
15 -75 0 -43 -5 -66 -15 -75 -10 -9 -15 -31 -15 -74 l0 -61 -82 -82 c-46 -46
-90 -83 -98 -83 -9 0 -29 -13 -45 -30 l-29 -30 -151 0 -151 0 -29 30 c-16 16
-36 30 -44 30 -9 0 -53 37 -98 82 l-83 83 0 61 c0 43 -5 65 -15 74 -10 9 -15
32 -15 75 0 43 5 66 15 75 8 7 15 27 15 45 0 18 7 38 15 45 8 7 15 20 15 30 0
10 7 23 15 30 8 7 15 19 15 28 0 21 40 62 60 62 9 0 29 14 45 30 20 21 38 30
61 30 17 0 37 7 44 15 7 8 27 15 45 15 18 0 38 7 45 15 7 8 27 15 45 15 18 0
38 -7 45 -15z"/>
</g>
</svg>
